<!--
asi:Redes Locales
title:Calculadora de IPs con CIDR
body:Escribes una IP con CIDR y recibes toda la información de esa IP.
-->
<svg xmlns="http://www.w3.org/2000/svg" width="25" height="25" viewBox="0 0 47 15"><path fill="currentColor" d="M6.491.199v14.545H3.416V3.118h-.085L0 5.206V2.479L3.6.199zM13.611 0q1.122 0 2.16.376 1.043.377 1.86 1.2.825.826 1.3 2.188.483 1.357.49 3.331 0 1.855-.42 3.31-.412 1.449-1.185 2.464a5.2 5.2 0 0 1-1.868 1.549q-1.095.525-2.443.525-1.456 0-2.571-.56a4.8 4.8 0 0 1-1.797-1.542 4.8 4.8 0 0 1-.817-2.202h3.033q.178.796.745 1.236.57.433 1.407.433 1.42 0 2.159-1.235.737-1.244.746-3.402h-.1a3.5 3.5 0 0 1-.88 1.1q-.555.455-1.272.704a4.6 4.6 0 0 1-1.513.248q-1.285 0-2.294-.604a4.33 4.33 0 0 1-1.59-1.662Q8.177 6.4 8.177 5.043q-.008-1.464.675-2.607a4.75 4.75 0 0 1 1.903-1.79Q11.985-.006 13.61 0m.022 2.415q-.718 0-1.279.34-.555.341-.88.917a2.55 2.55 0 0 0-.313 1.285q0 .718.313 1.293.319.568.866.91.554.333 1.264.333a2.44 2.44 0 0 0 1.776-.746 2.6 2.6 0 0 0 .532-.817q.192-.46.192-.98a2.6 2.6 0 0 0-.326-1.264 2.5 2.5 0 0 0-.881-.923 2.35 2.35 0 0 0-1.264-.348m6.32 12.329v-2.216l5.177-4.794q.66-.64 1.108-1.15a4.4 4.4 0 0 0 .69-1.002q.233-.496.233-1.072 0-.64-.29-1.1a1.9 1.9 0 0 0-.796-.718 2.5 2.5 0 0 0-1.144-.256q-.668 0-1.164.27a1.86 1.86 0 0 0-.767.774q-.27.504-.27 1.2h-2.92q0-1.426.647-2.478A4.3 4.3 0 0 1 22.267.575Q23.432 0 24.952 0q1.562 0 2.72.554 1.165.547 1.81 1.52.648.973.647 2.23a4.3 4.3 0 0 1-.327 1.626q-.32.804-1.143 1.783-.824.974-2.322 2.337l-2.124 2.08v.1h6.108v2.514zm19.776-.114-1.648-1.633 5.526-5.525-5.526-5.519 1.648-1.64 7.159 7.159zm-7.458-4.09V8.225h12.323l-2.33 2.315zm0-3.821V4.403h9.993l2.33 2.316z"/></svg>