<!--
asi:Redes Locales
title:Convertidor binario &hArr; hexadecimal &hArr; decimal
body:Convierte entre binario, decimal, y hexadecimal.
-->
<svg xmlns="http://www.w3.org/2000/svg" width="25" height="25" viewBox="0 0 32 26"><path fill="currentColor" d="M3 17.333V23h7.667v3H0v-8.667zm29 0V26H21.333v-3H29v-5.667zM10.667 0v3H3v5.667H0V0zM32 0v8.667h-3V3h-7.667V0zM13.214 7.16v11.68h-2.47V9.504h-.067L8.002 11.18V8.99l2.891-1.83zm6.071 11.936q-1.47-.006-2.532-.724-1.055-.72-1.625-2.082-.565-1.362-.56-3.279 0-1.912.565-3.256.57-1.346 1.626-2.048Q17.819 7 19.285 7t2.52.707q1.062.708 1.632 2.053.57 1.34.565 3.251 0 1.921-.57 3.285-.566 1.364-1.62 2.082-1.056.718-2.527.718m0-2.047q1.004 0 1.603-1.01t.593-3.028q0-1.328-.274-2.213-.268-.884-.764-1.329a1.67 1.67 0 0 0-1.158-.444q-.998 0-1.597.998-.598.997-.604 2.988 0 1.346.268 2.247.273.896.77 1.346.495.445 1.163.445"/></svg>