<!--
asi:Itinerario Personal para la Empleabilidad
title:Calculadora de finiquitos
body:Calcula cuánto se debe pagar por una liquidación de contrato.
-->
<svg xmlns="http://www.w3.org/2000/svg" width="25" height="25" fill="none" viewBox="0 0 90 100"><path fill="currentColor" d="m63.231 31.703-1.85 11.272L0 59.422l1.025-11.05zm-3.614 21.585-2.249 11.625L5.216 78.887l.963-11.28zm8.822-49.896L65.3 21.062q-2.181-.794-5.204-1.608-2.989-.872-6.623-1.03-3.6-.216-7.641.867-6.38 1.71-10.249 6.19-3.867 4.481-4.664 11.977-.75 7.482 2.104 18.134 2.878 10.743 7.258 16.802 4.412 6.002 9.99 7.902 5.565 1.855 11.946.145 4.04-1.082 7.063-3.024t5.108-4.075q2.13-2.145 3.498-3.84L89.53 83.21q-3.897 5.474-9.667 9.282-5.781 3.765-12.898 5.67-12.027 3.223-22.827.015-10.766-3.266-18.877-12.606-8.124-9.387-12.209-24.628-4.072-15.196-1.74-27.433 2.33-12.237 10.02-20.448 7.724-8.27 19.752-11.492 7.39-1.98 14.27-1.462 6.882.518 13.084 3.284"/></svg>