<!--
asi:Utilidades pluri-asignatura
title:Calculadora de notas
body:Una calculadora de notas medias, tanto aritméticas (simples) como ponderadas (con peso).
-->
<svg xmlns="http://www.w3.org/2000/svg" width="25" height="25" viewBox="0 0 90 86"><path fill="currentColor" d="M43.153 1.44c.684-1.643 3.01-1.643 3.694 0l10.909 26.23a2 2 0 0 0 1.687 1.225l28.317 2.27c1.773.142 2.492 2.355 1.14 3.512L67.327 53.158a2 2 0 0 0-.644 1.983l6.591 27.633c.413 1.73-1.47 3.098-2.987 2.17L46.042 70.137a2 2 0 0 0-2.084 0L19.714 84.944c-1.518.928-3.4-.44-2.987-2.17l6.59-27.633a2 2 0 0 0-.643-1.983L1.099 34.678C-.252 33.52.467 31.306 2.24 31.164l28.317-2.27a2 2 0 0 0 1.687-1.226z"/></svg>