<!--
asi:Redes Locales
title:Calculadora de FLSM para IPs
body:Escribes una IP con CIDR y varios rangos de dispositivos, y divide todo con FLSM por ti.
-->
<svg xmlns="http://www.w3.org/2000/svg" width="25" height="25" fill="none" viewBox="0 0 140 140"><path fill="currentColor" d="M105 70c0-19.33-15.67-35-35-35S35 50.67 35 70s15.67 35 35 35v15c-27.614 0-50-22.386-50-50s22.386-50 50-50 50 22.386 50 50-22.386 50-50 50v-15c19.33 0 35-15.67 35-35"/><path fill="currentColor" d="M85 70c0-8.284-6.716-15-15-15s-15 6.716-15 15 6.716 15 15 15v15c-16.568 0-30-13.431-30-30 0-16.568 13.432-30 30-30 16.569 0 30 13.432 30 30 0 16.569-13.431 30-30 30V85c8.284 0 15-6.716 15-15M70 0a70 70 0 0 1 70 70h-15.4a54.6 54.6 0 0 0-15.52-38.13l-.472-.478a54.6 54.6 0 0 0-17.094-11.575l-.62-.26A54.6 54.6 0 0 0 70 15.4zM15.4 70A54.6 54.6 0 0 0 70 124.6V140l-.861-.005a70 70 0 0 1-25.13-4.999l-.797-.324a70 70 0 0 1-22.097-14.569l-.612-.606a70 70 0 0 1-14.84-21.915l-.335-.794A70 70 0 0 1 0 70z"/></svg>