<!--
asi:Redes Locales
title:Calculadora de VLSM para IPs
body:Escribes una IP y varios rangos de dispositivos, y divide todo con VLSM por ti.
-->
<svg xmlns="http://www.w3.org/2000/svg" width="25" height="25" viewBox="0 0 180 140"><path fill="currentColor" d="M90 70c0-22.091-17.909-40-40-40S10 47.909 10 70s17.909 40 40 40v10C22.386 120 0 97.614 0 70s22.386-50 50-50 50 22.386 50 50-22.386 50-50 50v-10c22.091 0 40-17.909 40-40m85-50c0-8.284-6.716-15-15-15s-15 6.716-15 15 6.716 15 15 15v5c-11.046 0-20-8.954-20-20s8.954-20 20-20 20 8.954 20 20-8.954 20-20 20v-5c8.284 0 15-6.716 15-15m0 100c0-8.284-6.716-15-15-15s-15 6.716-15 15 6.716 15 15 15v5c-11.046 0-20-8.954-20-20s8.954-20 20-20 20 8.954 20 20-8.954 20-20 20v-5c8.284 0 15-6.716 15-15"/><path fill="currentColor" d="m100.32 42.895.684 1.88-7.576 2.757-.684-1.88zm8.523-3.102.684 1.88-7.576 2.757-.684-1.88zm8.522-3.102.684 1.88-7.576 2.757-.684-1.88zm8.523-3.102.684 1.88-7.576 2.757-.684-1.88zm8.522-3.102.684 1.88-7.575 2.757-.684-1.88zm8.522-3.102.684 1.88-7.575 2.757-.684-1.88zM99.688 95.346l-.684 1.88-7.576-2.758.684-1.879zm8.523 3.102-.684 1.88-7.576-2.758.684-1.88zm8.522 3.102-.684 1.88-7.576-2.758.684-1.88zm8.523 3.102-.684 1.88-7.576-2.758.684-1.879zm8.522 3.102-.684 1.879-7.575-2.757.684-1.879zm8.523 3.102-.685 1.879-7.575-2.757.684-1.879z"/></svg>